# xmcd
#
# Track frame offsets: 
#        150
#        12600
#        27942
#        44000
#        59002
#        71990
#        85535
#        96895
#        115940
#        140587
#        160055
#
# Disc length: 2467 seconds
#
# Revision: 7
# Processed by: cddbd v1.5.2PL0 Copyright (c) Steve Scherf et al.
# Submitted via: ExactAudioCopyFreeDBPlugin 1.0
#
DISCID=9c09a10b
DTITLE=Various Artist - Slatanic Slaughter I
DYEAR=1995
DGENRE=Metal
TTITLE0=Dissection - The Antichrist
TTITLE1=Hypocrisy - Black Magic
TTITLE2=Merciless - Crionics
TTITLE3=At The Gates - Captor Of Sin
TTITLE4=Invocator - Altar Of Sacrifice
TTITLE5=Enslaved - Jesus Saves
TTITLE6=Edge Of Sanity - Criminally Insane
TTITLE7=Seance - Post Mortem
TTITLE8=Cemetary - South Of Heaven
TTITLE9=Crown Of Thorns - Mandatory Suicide
TTITLE10=Grope - Spill The Blood
EXTD=
EXTT0=
EXTT1=
EXTT2=
EXTT3=
EXTT4=
EXTT5=
EXTT6=
EXTT7=
EXTT8=
EXTT9=
EXTT10=
PLAYORDER=
